STARTFONT 2.1
FONT -FontForge-Concert One-Book-R-Normal--24-240-75-75-P-119-ISO10646-1
SIZE 24 75 75
FONTBOUNDINGBOX 20 28 -1 -5
COMMENT "Generated by fontforge, http://fontforge.sourceforge.net"
COMMENT "Copyright (c) 2011, 2011 Johan Kallas (johankallas@gmail.com), Copyright (c) 2011, 2011 Mihkel Virkus (mihkelvirkus@gmail.com), with Reserved Font Name Concert."
STARTPROPERTIES 39
FOUNDRY "FontForge"
FAMILY_NAME "Concert One"
WEIGHT_NAME "Book"
SLANT "R"
SETWIDTH_NAME "Normal"
ADD_STYLE_NAME ""
PIXEL_SIZE 24
POINT_SIZE 240
RESOLUTION_X 75
RESOLUTION_Y 75
SPACING "P"
AVERAGE_WIDTH 119
CHARSET_REGISTRY "ISO10646"
CHARSET_ENCODING "1"
FONTNAME_REGISTRY ""
CHARSET_COLLECTIONS "ISO10646-1"
FONT_NAME "ConcertOne-Regular"
FACE_NAME "Concert One"
COPYRIGHT "Copyright (c) 2011, 2011 Johan Kallas (johankallas@gmail.com), Copyright (c) 2011, 2011 Mihkel Virkus (mihkelvirkus@gmail.com), with Reserved Font Name Concert."
FONT_VERSION "1.003"
FONT_ASCENT 19
FONT_DESCENT 5
UNDERLINE_POSITION -2
UNDERLINE_THICKNESS 2
X_HEIGHT 11
CAP_HEIGHT 15
RAW_ASCENT 799
RAW_DESCENT 200
NORM_SPACE 9
RELATIVE_WEIGHT 40
RELATIVE_SETWIDTH 50
SUPERSCRIPT_X 0
SUPERSCRIPT_Y 11
SUPERSCRIPT_SIZE 15
SUBSCRIPT_X 0
SUBSCRIPT_Y 3
SUBSCRIPT_SIZE 15
AVG_LOWERCASE_WIDTH 117
AVG_UPPERCASE_WIDTH 129
ENDPROPERTIES
CHARS 95
STARTCHAR space
ENCODING 32
SWIDTH 389 0
DWIDTH 9 0
BBX 1 1 0 0
BITMAP
00
ENDCHAR
STARTCHAR exclam
ENCODING 33
SWIDTH 394 0
DWIDTH 9 0
BBX 4 16 3 0
BITMAP
60
F0
F0
F0
F0
F0
F0
E0
E0
60
60
00
F0
F0
F0
60
ENDCHAR
STARTCHAR quotedbl
ENCODING 34
SWIDTH 438 0
DWIDTH 11 0
BBX 8 5 1 11
BITMAP
E7
E7
E7
E7
E7
ENDCHAR
STARTCHAR numbersign
ENCODING 35
SWIDTH 619 0
DWIDTH 15 0
BBX 13 12 1 2
BITMAP
0C60
0CE0
0CE0
7FF8
7FF8
0CC0
1DC0
FFF0
FFF0
1980
1980
1980
ENDCHAR
STARTCHAR dollar
ENCODING 36
SWIDTH 513 0
DWIDTH 12 0
BBX 9 16 2 0
BITMAP
1C00
1C00
1C00
7E00
FF00
E700
F700
FE00
7F00
3F80
EF80
E780
FF80
7F00
1C00
1C00
ENDCHAR
STARTCHAR percent
ENCODING 37
SWIDTH 724 0
DWIDTH 17 0
BBX 15 16 1 0
BITMAP
7C30
FE78
C670
C6F0
FEE0
7DE0
01C0
03C0
0380
0700
073C
0E7E
0E66
1C66
1C7E
183C
ENDCHAR
STARTCHAR ampersand
ENCODING 38
SWIDTH 632 0
DWIDTH 15 0
BBX 13 16 1 0
BITMAP
1F00
3F80
3FC0
79C0
39C0
39C0
1F80
3F00
7F38
77F8
E3F0
E1F0
F3F0
7FF0
7FF8
1F30
ENDCHAR
STARTCHAR quotesingle
ENCODING 39
SWIDTH 254 0
DWIDTH 6 0
BBX 3 6 1 10
BITMAP
E0
E0
E0
E0
E0
E0
ENDCHAR
STARTCHAR parenleft
ENCODING 40
SWIDTH 433 0
DWIDTH 10 0
BBX 6 20 3 -2
BITMAP
3C
7C
FC
F0
E0
E0
E0
E0
E0
E0
E0
E0
E0
E0
E0
E0
F0
FC
7C
3C
ENDCHAR
STARTCHAR parenright
ENCODING 41
SWIDTH 433 0
DWIDTH 10 0
BBX 6 20 1 -2
BITMAP
F0
F8
FC
3C
1C
1C
1C
1C
1C
1C
1C
1C
1C
1C
1C
1C
3C
FC
F8
F0
ENDCHAR
STARTCHAR asterisk
ENCODING 42
SWIDTH 583 0
DWIDTH 14 0
BBX 11 13 1 2
BITMAP
0E00
0E00
CE60
FFE0
FFE0
7FC0
1F00
7FC0
FFE0
EEE0
8E40
0E00
0E00
ENDCHAR
STARTCHAR plus
ENCODING 43
SWIDTH 538 0
DWIDTH 13 0
BBX 9 9 2 4
BITMAP
1C00
1C00
1C00
FF80
FF80
FF80
1C00
1C00
1C00
ENDCHAR
STARTCHAR comma
ENCODING 44
SWIDTH 291 0
DWIDTH 7 0
BBX 4 6 2 -2
BITMAP
F0
F0
F0
70
30
20
ENDCHAR
STARTCHAR hyphen
ENCODING 45
SWIDTH 471 0
DWIDTH 11 0
BBX 9 3 1 6
BITMAP
7F80
FF80
7F80
ENDCHAR
STARTCHAR period
ENCODING 46
SWIDTH 291 0
DWIDTH 7 0
BBX 4 4 2 0
BITMAP
F0
F0
F0
60
ENDCHAR
STARTCHAR slash
ENCODING 47
SWIDTH 442 0
DWIDTH 11 0
BBX 9 16 1 0
BITMAP
0300
0380
0700
0700
0E00
0E00
1C00
1C00
3C00
3800
3800
7000
7000
E000
E000
C000
ENDCHAR
STARTCHAR zero
ENCODING 48
SWIDTH 545 0
DWIDTH 13 0
BBX 11 16 1 0
BITMAP
1F00
7FC0
FFE0
F1E0
F1E0
F1E0
F1E0
F1E0
F1E0
F1E0
F1E0
F1E0
F1E0
FFE0
7FC0
1F00
ENDCHAR
STARTCHAR one
ENCODING 49
SWIDTH 383 0
DWIDTH 9 0
BBX 8 16 0 0
BITMAP
0E
1F
3F
7F
FF
6F
0F
0F
0F
0F
0F
0F
0F
0F
0F
06
ENDCHAR
STARTCHAR two
ENCODING 50
SWIDTH 517 0
DWIDTH 13 0
BBX 11 16 1 0
BITMAP
1F00
7FC0
7FC0
F1E0
F1E0
F1E0
03E0
0FC0
3F80
7E00
F800
F000
F000
FFC0
FFE0
7FC0
ENDCHAR
STARTCHAR three
ENCODING 51
SWIDTH 500 0
DWIDTH 12 0
BBX 10 16 1 0
BITMAP
FF80
FF80
FF80
0780
0700
0F00
0F00
0F80
03C0
01C0
01C0
C1C0
E3C0
FF80
7F80
3E00
ENDCHAR
STARTCHAR four
ENCODING 52
SWIDTH 489 0
DWIDTH 11 0
BBX 9 16 1 0
BITMAP
1800
3800
3800
3800
7800
7100
7380
F380
F380
FF80
FF80
FF80
0380
0380
0380
0380
ENDCHAR
STARTCHAR five
ENCODING 53
SWIDTH 500 0
DWIDTH 12 0
BBX 10 16 1 0
BITMAP
7F80
7F80
7F80
7000
F000
FF00
FF80
FF80
63C0
01C0
01C0
C1C0
E3C0
FF80
7F80
3E00
ENDCHAR
STARTCHAR six
ENCODING 54
SWIDTH 484 0
DWIDTH 12 0
BBX 9 16 2 0
BITMAP
1C00
7C00
7C00
F000
E000
E000
FE00
FF00
FF80
E780
E780
E780
E780
FF80
7F00
3E00
ENDCHAR
STARTCHAR seven
ENCODING 55
SWIDTH 494 0
DWIDTH 12 0
BBX 10 16 1 0
BITMAP
FFC0
FFC0
FFC0
03C0
0780
0F80
0F00
1E00
1E00
3C00
3C00
3C00
3C00
3C00
3C00
3C00
ENDCHAR
STARTCHAR eight
ENCODING 56
SWIDTH 498 0
DWIDTH 11 0
BBX 9 16 1 0
BITMAP
3E00
7F00
FF80
E380
E380
E380
7F00
7F00
E380
E380
E380
E380
E380
FF80
7F00
3E00
ENDCHAR
STARTCHAR nine
ENCODING 57
SWIDTH 484 0
DWIDTH 12 0
BBX 10 16 0 0
BITMAP
3F00
7F80
FFC0
F1C0
F1C0
F1C0
F1C0
FFC0
7FC0
3FC0
01C0
01C0
03C0
0F80
0F80
0E00
ENDCHAR
STARTCHAR colon
ENCODING 58
SWIDTH 279 0
DWIDTH 6 0
BBX 4 10 1 0
BITMAP
F0
F0
F0
E0
00
00
F0
F0
F0
60
ENDCHAR
STARTCHAR semicolon
ENCODING 59
SWIDTH 291 0
DWIDTH 7 0
BBX 4 12 1 -2
BITMAP
F0
F0
F0
E0
00
00
F0
F0
F0
70
30
20
ENDCHAR
STARTCHAR less
ENCODING 60
SWIDTH 454 0
DWIDTH 11 0
BBX 7 12 2 1
BITMAP
04
0E
1E
3C
78
F0
F0
78
3C
1E
0E
04
ENDCHAR
STARTCHAR equal
ENCODING 61
SWIDTH 538 0
DWIDTH 13 0
BBX 9 8 2 3
BITMAP
FF00
FF80
FF00
0000
0000
FF00
FF80
FF00
ENDCHAR
STARTCHAR greater
ENCODING 62
SWIDTH 454 0
DWIDTH 11 0
BBX 7 12 2 1
BITMAP
C0
E0
F0
78
3C
1E
1E
3C
78
F0
E0
C0
ENDCHAR
STARTCHAR question
ENCODING 63
SWIDTH 547 0
DWIDTH 13 0
BBX 11 17 1 0
BITMAP
1F00
7FC0
7FC0
F0E0
F0E0
F0E0
01C0
07C0
0F00
0E00
0E00
0400
0000
0F00
0F00
0F00
0600
ENDCHAR
STARTCHAR at
ENCODING 64
SWIDTH 729 0
DWIDTH 17 0
BBX 13 14 2 -1
BITMAP
0FC0
3060
4010
4FD0
9FC8
9DC8
9DC8
9DC8
9DC8
9DC8
5FD0
6FE0
3008
0FF0
ENDCHAR
STARTCHAR A
ENCODING 65
SWIDTH 539 0
DWIDTH 13 0
BBX 11 16 1 0
BITMAP
1F00
1F00
3F80
3B80
3B80
7BC0
71C0
71C0
F1C0
FFE0
FFE0
FFE0
E0E0
E0E0
E0E0
E0E0
ENDCHAR
STARTCHAR B
ENCODING 66
SWIDTH 539 0
DWIDTH 12 0
BBX 11 16 1 0
BITMAP
FF00
FF80
FFC0
F3C0
F1C0
F1C0
F380
FF00
FFC0
F3E0
F1E0
F1E0
F1E0
FFE0
FFC0
FF00
ENDCHAR
STARTCHAR C
ENCODING 67
SWIDTH 541 0
DWIDTH 13 0
BBX 11 16 1 0
BITMAP
1F00
7FC0
7FC0
F1E0
F1E0
F1E0
F1E0
F000
F000
F1E0
F1E0
F1E0
F3E0
FFC0
7F80
1F00
ENDCHAR
STARTCHAR D
ENCODING 68
SWIDTH 534 0
DWIDTH 12 0
BBX 9 16 2 0
BITMAP
FE00
FF00
FF80
F380
F380
F380
F380
F380
F380
F380
F380
F380
F380
FF80
FF00
FE00
ENDCHAR
STARTCHAR E
ENCODING 69
SWIDTH 481 0
DWIDTH 12 0
BBX 9 16 1 0
BITMAP
FF80
FF80
FF80
F000
F000
F000
FF00
FF00
FF00
F000
F000
F000
F000
FF80
FF80
FF80
ENDCHAR
STARTCHAR F
ENCODING 70
SWIDTH 458 0
DWIDTH 11 0
BBX 9 16 1 0
BITMAP
FF80
FF80
FF80
F000
F000
F000
FF00
FF00
FF00
F000
F000
F000
F000
F000
F000
E000
ENDCHAR
STARTCHAR G
ENCODING 71
SWIDTH 564 0
DWIDTH 13 0
BBX 11 16 1 0
BITMAP
1F00
7FC0
7FC0
F1E0
F1E0
F1E0
F0C0
F000
F000
F3E0
F3E0
F0E0
F1E0
FFE0
7F60
1E60
ENDCHAR
STARTCHAR H
ENCODING 72
SWIDTH 569 0
DWIDTH 14 0
BBX 10 16 2 0
BITMAP
6180
F3C0
F3C0
F3C0
F3C0
F3C0
FFC0
FFC0
FFC0
F3C0
F3C0
F3C0
F3C0
F3C0
F3C0
6180
ENDCHAR
STARTCHAR I
ENCODING 73
SWIDTH 325 0
DWIDTH 8 0
BBX 4 16 2 0
BITMAP
60
F0
F0
F0
F0
F0
F0
F0
F0
F0
F0
F0
F0
F0
F0
60
ENDCHAR
STARTCHAR J
ENCODING 74
SWIDTH 549 0
DWIDTH 14 0
BBX 11 16 1 0
BITMAP
3FC0
7FE0
3FE0
01E0
01E0
01E0
01E0
01E0
01E0
F1E0
F1E0
F1E0
F1E0
7FE0
7FC0
1F00
ENDCHAR
STARTCHAR K
ENCODING 75
SWIDTH 557 0
DWIDTH 14 0
BBX 11 16 1 0
BITMAP
60E0
F0E0
F1E0
F1E0
F3C0
F3C0
F380
FF80
FFC0
F3C0
F1E0
F1E0
F1E0
F1E0
F1E0
60E0
ENDCHAR
STARTCHAR L
ENCODING 76
SWIDTH 472 0
DWIDTH 11 0
BBX 9 16 2 0
BITMAP
6000
F000
F000
F000
F000
F000
F000
F000
F000
F000
F000
F000
F000
FF00
FF80
FF00
ENDCHAR
STARTCHAR M
ENCODING 77
SWIDTH 778 0
DWIDTH 18 0
BBX 14 16 2 0
BITMAP
F03C
F87C
F87C
FCFC
FCFC
ECDC
EFDC
EFDC
E79C
E79C
E79C
E31C
E01C
E01C
E01C
E01C
ENDCHAR
STARTCHAR N
ENCODING 78
SWIDTH 664 0
DWIDTH 16 0
BBX 12 16 2 0
BITMAP
F070
F870
F870
FC70
FC70
EC70
EE70
EE70
E770
E770
E370
E3F0
E3F0
E1F0
E1F0
E0F0
ENDCHAR
STARTCHAR O
ENCODING 79
SWIDTH 550 0
DWIDTH 13 0
BBX 11 16 1 0
BITMAP
1F00
7FC0
FFE0
F1E0
F1E0
F1E0
F1E0
F1E0
F1E0
F1E0
F1E0
F1E0
F1E0
FFE0
7FC0
1F00
ENDCHAR
STARTCHAR P
ENCODING 80
SWIDTH 528 0
DWIDTH 14 0
BBX 11 16 2 0
BITMAP
FF00
FFC0
FFC0
F3E0
F1E0
F1E0
F3E0
FFC0
FFC0
FF00
F000
F000
F000
F000
F000
F000
ENDCHAR
STARTCHAR Q
ENCODING 81
SWIDTH 564 0
DWIDTH 13 0
BBX 12 17 1 -1
BITMAP
1F00
7FC0
FFE0
F1E0
F1E0
F1E0
F1E0
F1E0
F1E0
F1E0
F1E0
F1E0
F1E0
FFE0
7FE0
1FF0
0070
ENDCHAR
STARTCHAR R
ENCODING 82
SWIDTH 557 0
DWIDTH 14 0
BBX 12 16 1 0
BITMAP
FF80
FFE0
FFE0
F1F0
F0F0
F0F0
F1F0
FFE0
FF80
FFC0
F1E0
F1E0
F1E0
F1E0
F1F0
F0F0
ENDCHAR
STARTCHAR S
ENCODING 83
SWIDTH 495 0
DWIDTH 13 0
BBX 12 16 0 0
BITMAP
1F80
3FC0
7FE0
70E0
70E0
78E0
3C00
1F00
07C0
01E0
70F0
F0F0
70F0
7FF0
3FE0
1F80
ENDCHAR
STARTCHAR T
ENCODING 84
SWIDTH 479 0
DWIDTH 12 0
BBX 12 16 0 0
BITMAP
7FE0
FFF0
7FE0
0F00
0F00
0F00
0F00
0F00
0F00
0F00
0F00
0F00
0F00
0F00
0F00
0F00
ENDCHAR
STARTCHAR U
ENCODING 85
SWIDTH 589 0
DWIDTH 15 0
BBX 11 16 2 0
BITMAP
60C0
F1E0
F1E0
F1E0
F1E0
F1E0
F1E0
F1E0
F1E0
F1E0
F1E0
F1E0
F1E0
7FE0
7FC0
1F00
ENDCHAR
STARTCHAR V
ENCODING 86
SWIDTH 488 0
DWIDTH 12 0
BBX 12 16 0 0
BITMAP
6060
F0F0
F0E0
70E0
71E0
79E0
79C0
39C0
39C0
3BC0
1F80
1F80
1F80
1F00
0F00
0F00
ENDCHAR
STARTCHAR W
ENCODING 87
SWIDTH 813 0
DWIDTH 20 0
BBX 19 16 0 0
BITMAP
606060
F0F0E0
F0F0E0
70F0E0
71F1E0
79F1E0
79F9C0
39F9C0
39B9C0
3BBB80
3F9F80
1F9F80
1F9F80
1F1F00
0F0F00
0E0E00
ENDCHAR
STARTCHAR X
ENCODING 88
SWIDTH 559 0
DWIDTH 13 0
BBX 12 16 1 0
BITMAP
E060
E0F0
F0E0
71E0
7BC0
3FC0
1F80
1F00
1F00
1F80
3FC0
7BC0
71E0
F0E0
E0F0
C060
ENDCHAR
STARTCHAR Y
ENCODING 89
SWIDTH 488 0
DWIDTH 12 0
BBX 12 16 0 0
BITMAP
E070
E070
F0F0
70E0
79E0
39C0
3FC0
1F80
1F80
0F00
0F00
0F00
0F00
0F00
0F00
0600
ENDCHAR
STARTCHAR Z
ENCODING 90
SWIDTH 508 0
DWIDTH 12 0
BBX 11 16 1 0
BITMAP
FFC0
FFC0
FFC0
03C0
0780
0780
0F00
0E00
1E00
3C00
3C00
7800
7800
FFC0
FFE0
FFC0
ENDCHAR
STARTCHAR bracketleft
ENCODING 91
SWIDTH 408 0
DWIDTH 10 0
BBX 6 16 3 0
BITMAP
FC
FC
FC
E0
E0
E0
E0
E0
E0
E0
E0
E0
E0
FC
FC
FC
ENDCHAR
STARTCHAR backslash
ENCODING 92
SWIDTH 442 0
DWIDTH 11 0
BBX 9 16 1 0
BITMAP
C000
E000
E000
7000
7000
3800
3800
1C00
1C00
1C00
0E00
0E00
0700
0700
0380
0300
ENDCHAR
STARTCHAR bracketright
ENCODING 93
SWIDTH 408 0
DWIDTH 10 0
BBX 6 16 2 0
BITMAP
FC
FC
FC
1C
1C
1C
1C
1C
1C
1C
1C
1C
1C
FC
FC
FC
ENDCHAR
STARTCHAR asciicircum
ENCODING 94
SWIDTH 476 0
DWIDTH 11 0
BBX 7 5 2 9
BITMAP
18
3C
7E
FE
C6
ENDCHAR
STARTCHAR underscore
ENCODING 95
SWIDTH 687 0
DWIDTH 17 0
BBX 13 3 2 0
BITMAP
FFF0
FFF8
FFF0
ENDCHAR
STARTCHAR grave
ENCODING 96
SWIDTH 340 0
DWIDTH 8 0
BBX 5 4 2 13
BITMAP
C0
F0
F8
30
ENDCHAR
STARTCHAR a
ENCODING 97
SWIDTH 498 0
DWIDTH 12 0
BBX 10 12 1 0
BITMAP
3980
7FC0
FFC0
F3C0
F3C0
F3C0
F3C0
F3C0
F3C0
FFC0
7FC0
3980
ENDCHAR
STARTCHAR b
ENCODING 98
SWIDTH 508 0
DWIDTH 13 0
BBX 11 16 1 0
BITMAP
6000
F000
F000
F000
F780
FFC0
FFE0
F9E0
F1E0
F1E0
F1E0
F1E0
F9E0
FFE0
FFC0
6780
ENDCHAR
STARTCHAR c
ENCODING 99
SWIDTH 488 0
DWIDTH 12 0
BBX 10 12 1 0
BITMAP
3F00
7F80
FFC0
F3C0
F3C0
F000
F000
F3C0
F3C0
F3C0
7F80
3F00
ENDCHAR
STARTCHAR d
ENCODING 100
SWIDTH 498 0
DWIDTH 12 0
BBX 10 16 1 0
BITMAP
0180
03C0
03C0
03C0
3BC0
7FC0
FFC0
F3C0
F3C0
F3C0
F3C0
F3C0
F3C0
FFC0
7FC0
3980
ENDCHAR
STARTCHAR e
ENCODING 101
SWIDTH 498 0
DWIDTH 12 0
BBX 10 12 1 0
BITMAP
3F00
7F80
F1C0
F1C0
F1C0
FFC0
FFC0
F000
F1C0
F3C0
7FC0
3F00
ENDCHAR
STARTCHAR f
ENCODING 102
SWIDTH 366 0
DWIDTH 9 0
BBX 9 16 0 0
BITMAP
1F00
3F80
3F00
3C00
FF00
FF00
FF00
3C00
3C00
3C00
3C00
3C00
3C00
3C00
3C00
1800
ENDCHAR
STARTCHAR g
ENCODING 103
SWIDTH 508 0
DWIDTH 12 0
BBX 10 17 1 -5
BITMAP
3980
7FC0
FFC0
F3C0
F3C0
F3C0
F3C0
F3C0
F3C0
FFC0
7FC0
3BC0
03C0
73C0
F3C0
7F80
3F00
ENDCHAR
STARTCHAR h
ENCODING 104
SWIDTH 508 0
DWIDTH 13 0
BBX 11 16 1 0
BITMAP
6000
F000
F000
F000
F780
FFC0
FFE0
F9E0
F1E0
F1E0
F1E0
F1E0
F1E0
F1E0
F1E0
60C0
ENDCHAR
STARTCHAR i
ENCODING 105
SWIDTH 305 0
DWIDTH 7 0
BBX 4 16 2 0
BITMAP
F0
F0
F0
E0
60
F0
F0
F0
F0
F0
F0
F0
F0
F0
F0
60
ENDCHAR
STARTCHAR j
ENCODING 106
SWIDTH 305 0
DWIDTH 8 0
BBX 7 21 -1 -5
BITMAP
0E
1E
1E
0C
00
1E
1E
1E
1E
1E
1E
1E
1E
1E
1E
1E
1E
1E
7E
FE
7C
ENDCHAR
STARTCHAR k
ENCODING 107
SWIDTH 495 0
DWIDTH 12 0
BBX 9 16 2 0
BITMAP
E000
E000
E000
E000
E700
E700
EF00
FE00
FC00
FC00
FE00
EE00
EF00
E700
E780
E300
ENDCHAR
STARTCHAR l
ENCODING 108
SWIDTH 286 0
DWIDTH 7 0
BBX 4 16 1 0
BITMAP
60
F0
F0
F0
F0
F0
F0
F0
F0
F0
F0
F0
F0
F0
F0
60
ENDCHAR
STARTCHAR m
ENCODING 109
SWIDTH 783 0
DWIDTH 19 0
BBX 17 12 1 0
BITMAP
671E00
FFFF00
FFFF80
FBE780
F3C780
F3C780
F3C780
F3C780
F3C780
F3C780
F3C780
618300
ENDCHAR
STARTCHAR n
ENCODING 110
SWIDTH 528 0
DWIDTH 13 0
BBX 10 12 2 0
BITMAP
6700
FF80
FFC0
FBC0
F3C0
F3C0
F3C0
F3C0
F3C0
F3C0
F3C0
6180
ENDCHAR
STARTCHAR o
ENCODING 111
SWIDTH 483 0
DWIDTH 12 0
BBX 10 12 1 0
BITMAP
3F00
7F80
FFC0
F3C0
F3C0
F3C0
F3C0
F3C0
F3C0
F3C0
7F80
1F00
ENDCHAR
STARTCHAR p
ENCODING 112
SWIDTH 518 0
DWIDTH 13 0
BBX 10 17 2 -5
BITMAP
6700
FF80
FFC0
F3C0
F3C0
F3C0
F3C0
F3C0
F3C0
FFC0
FF80
F700
F000
F000
F000
F000
6000
ENDCHAR
STARTCHAR q
ENCODING 113
SWIDTH 518 0
DWIDTH 13 0
BBX 10 17 1 -5
BITMAP
3980
7FC0
FFC0
F3C0
F3C0
F3C0
F3C0
F3C0
F3C0
FFC0
7FC0
3BC0
03C0
03C0
03C0
03C0
0180
ENDCHAR
STARTCHAR r
ENCODING 114
SWIDTH 386 0
DWIDTH 9 0
BBX 8 12 1 0
BITMAP
67
F7
FF
FF
F8
F0
F0
F0
F0
F0
F0
60
ENDCHAR
STARTCHAR s
ENCODING 115
SWIDTH 444 0
DWIDTH 11 0
BBX 9 12 1 0
BITMAP
3F00
FF80
E380
E380
F800
7E00
1F00
E780
E380
E380
7F00
3E00
ENDCHAR
STARTCHAR t
ENCODING 116
SWIDTH 424 0
DWIDTH 10 0
BBX 9 16 1 0
BITMAP
3800
3C00
3C00
3C00
FF00
FF80
FF00
3C00
3C00
3C00
3C00
3C00
3C00
3F00
1F80
0F00
ENDCHAR
STARTCHAR u
ENCODING 117
SWIDTH 525 0
DWIDTH 13 0
BBX 11 12 1 0
BITMAP
60C0
F1E0
F1E0
F1E0
F1E0
F1E0
F1E0
F1E0
F3E0
FFE0
7FE0
3CC0
ENDCHAR
STARTCHAR v
ENCODING 118
SWIDTH 427 0
DWIDTH 10 0
BBX 10 12 0 0
BITMAP
61C0
F1C0
73C0
7380
7B80
3F80
3F00
3F00
1F00
1E00
1E00
0C00
ENDCHAR
STARTCHAR w
ENCODING 119
SWIDTH 681 0
DWIDTH 16 0
BBX 16 12 0 0
BITMAP
6007
F087
F1CF
73CF
7BEE
7BEE
3FFE
3F7C
1E7C
1E78
1E38
0C38
ENDCHAR
STARTCHAR x
ENCODING 120
SWIDTH 458 0
DWIDTH 11 0
BBX 9 12 1 0
BITMAP
C180
E380
F780
7F00
3E00
3E00
3E00
3E00
7F00
F780
E380
C180
ENDCHAR
STARTCHAR y
ENCODING 121
SWIDTH 447 0
DWIDTH 11 0
BBX 10 17 0 -5
BITMAP
60C0
F1C0
F1C0
73C0
7BC0
7B80
3B80
3F80
1F00
1F00
1F00
0E00
1E00
1C00
FC00
F800
7000
ENDCHAR
STARTCHAR z
ENCODING 122
SWIDTH 447 0
DWIDTH 11 0
BBX 9 12 1 0
BITMAP
FF00
FF80
FF80
0F00
0E00
1E00
3C00
7800
7800
FF00
FF80
FF00
ENDCHAR
STARTCHAR braceleft
ENCODING 123
SWIDTH 494 0
DWIDTH 12 0
BBX 8 21 2 -2
BITMAP
0F
1F
3F
3C
38
38
38
38
38
F0
F0
70
38
38
38
38
38
3C
3F
1F
0F
ENDCHAR
STARTCHAR bar
ENCODING 124
SWIDTH 294 0
DWIDTH 7 0
BBX 3 20 2 -2
BITMAP
E0
E0
E0
E0
E0
E0
E0
E0
E0
E0
E0
E0
E0
E0
E0
E0
E0
E0
E0
E0
ENDCHAR
STARTCHAR braceright
ENCODING 125
SWIDTH 494 0
DWIDTH 12 0
BBX 8 21 1 -2
BITMAP
F0
F8
FC
1C
1C
1C
1C
1C
1C
0F
0F
1E
1C
1C
1C
1C
1C
3C
FC
F8
F0
ENDCHAR
STARTCHAR asciitilde
ENCODING 126
SWIDTH 448 0
DWIDTH 11 0
BBX 8 4 1 1
BITMAP
31
7F
FF
4E
ENDCHAR
ENDFONT
